<?xml version="1.0" encoding="UTF-8"?>
<svg id="Layer_2" data-name="Layer 2" xmlns="http://www.w3.org/2000/svg" viewBox="0 0 299.81 156.69">
  <defs>
    <style>
      .cls-1 {
        fill: #65cceb;
      }

      .cls-2 {
        fill: #fff;
      }
    </style>
  </defs>
  <g>
    <g>
      <path class="cls-2" d="M113.84,130.92h0c-21.09,13.02-47.01,13.81-66.59-1.6-15.25-12-21.91-29.36-21.04-48.56,1.49-32.9,36.09-57.66,67.98-49.25,10.25,2.7,20.79,8.72,28.53,15.89,1.66,1.53,3.35,3.19,4.56,5.1-5.18,10.14-13.56,18.42-23.12,24.52-9.36,5.97-20.54,8.73-28.9,16.17-12.46,11.08-8.75,31.06,6.77,37.01,2.89,1.11,6.04,2.05,9.11,2.51,7.59,1.13,15.22-.37,22.71-1.78ZM99.52,46.16c-1.13.15-2.24,1.13-2.65,2.18-1.24,3.16,2.09,6.08,5.1,4.43,3.4-1.87,1.69-7.16-2.44-6.6ZM63.7,80.18c-2.06.03-3.91.53-5.65,1.61-7.51,4.64-3.31,13.82,4.97,13.01,4.27-.42,5.72-3.39,8.47-6.03,1.67-1.6,3.52-2.82,5.63-3.75-2.33-1.89-5.17-3.32-8.08-4.1-1.67-.45-3.61-.77-5.34-.74Z"/>
      <path class="cls-2" d="M85.96,91.46c-.46,2.21-.25,4.4.23,6.58.96,4.36,2.92,6.99.4,11.43-3.11,5.48-11.36,5.65-12.98-.93-1.93-7.85,5.78-14.49,12.35-17.07Z"/>
      <path class="cls-1" d="M63.7,80.18c1.73-.03,3.67.3,5.34.74,2.91.78,5.74,2.21,8.08,4.1-2.12.93-3.97,2.16-5.63,3.75-2.75,2.63-4.2,5.61-8.47,6.03-8.28.81-12.48-8.37-4.97-13.01,1.75-1.08,3.59-1.57,5.65-1.61Z"/>
    </g>
    <path class="cls-1" d="M62.04,33.49s-30.66,10.12-35.52,43.64c0,0-2.67-30.42,24.46-48.74,0,0,4.35.2,11.06,5.11Z"/>
    <path class="cls-1" d="M96.45,88.57s21.07-5.19,35.3-29.16c0,0,16.5,29.75-1.13,55.37,0,0-1.67,2.2.26,10.02,0,0-24.99,12.36-43.58,7.1,0,0,20.22.52,24.26-17.7,0,0,3.89-18.19-15.11-25.62Z"/>
  </g>
  <g>
    <g>
      <path class="cls-2" d="M173.36,52.1h15.14c0,5.81-1.19,9.95-4.71,13.2-3.08,2.86-6.6,3.7-10.34,3.7-5.28,0-8.89-1.94-11.27-4.36-2.2-2.2-4.22-5.76-4.22-10.61s1.85-8.49,4.4-11c2.42-2.42,6.21-4.31,11.4-4.31,2.73,0,5.68.62,7.92,1.98,2.29,1.41,4.18,3.74,5.24,6.03l-7.26,2.99c-.53-1.36-1.36-2.33-2.11-2.95-1.28-1.06-2.64-1.45-4.09-1.45-1.8,0-3.65.66-5.02,2.02-1.72,1.72-2.55,4.45-2.55,6.73,0,2.68.97,4.88,2.33,6.34,1.41,1.5,3.12,2.24,5.37,2.24,1.32,0,2.86-.22,4.22-1.36.7-.57,1.54-1.63,1.8-3.26h-6.25v-5.94Z"/>
      <path class="cls-2" d="M193.07,49.06h7.04v3.21c.7-1.32,1.72-2.2,2.77-2.73,1.06-.57,2.33-.79,3.65-.79.18,0,.48.04,1.41.09v6.65c-.35-.18-1.32-.7-3.04-.7-.92,0-2.2.13-3.21,1.06-1.5,1.36-1.58,3.43-1.58,4.49v8.41h-7.04v-19.67Z"/>
      <path class="cls-2" d="M232.32,60.19h-14.65c0,1.06.4,2.46,1.23,3.3.44.44,1.32.97,2.9.97.18,0,1.41-.04,2.29-.53.44-.26.92-.7,1.23-1.32h6.73c-.31,1.1-.92,2.64-2.38,4.05s-3.74,2.73-8.01,2.73c-2.6,0-5.72-.57-8.14-2.99-1.28-1.28-2.9-3.7-2.9-7.44,0-3.3,1.23-5.94,2.95-7.61,1.63-1.58,4.18-2.86,8.05-2.86,2.29,0,5.24.48,7.57,2.68,2.77,2.64,3.12,6.07,3.12,8.27v.75ZM225.85,56.15c-.18-.75-.62-1.58-1.14-2.11-.92-.92-2.2-1.06-2.9-1.06-1.19,0-2.11.31-2.86,1.06-.48.53-.92,1.23-1.06,2.11h7.96Z"/>
      <path class="cls-2" d="M251.99,49.06h7.04v19.67h-7.04v-2.16c-1.63,2.24-4.18,2.82-6.12,2.82-2.11,0-4.71-.62-7.08-3.12-1.89-2.02-2.82-4.27-2.82-7.22,0-3.7,1.45-6.29,3.04-7.88,1.67-1.67,4.27-2.77,7.08-2.77,3.17,0,5.06,1.63,5.9,2.55v-1.89ZM244.6,55.66c-.97.92-1.41,2.2-1.41,3.21,0,1.14.48,2.38,1.36,3.21.75.7,1.98,1.32,3.17,1.32s2.29-.48,3.17-1.36c.62-.62,1.32-1.58,1.32-3.17,0-.92-.26-2.16-1.36-3.21-.66-.62-1.67-1.28-3.17-1.28-.88,0-2.07.31-3.08,1.28Z"/>
      <path class="cls-2" d="M272.05,54.83v13.91h-7.04v-13.91h-2.25v-5.76h2.25v-6.47h7.04v6.47h4v5.76h-4Z"/>
      <path class="cls-2" d="M168.26,81.38v22.88h9.15v6.47h-16.77v-29.35h7.61Z"/>
      <path class="cls-2" d="M197.21,91.06h7.04v19.67h-7.04v-2.16c-1.63,2.24-4.18,2.82-6.12,2.82-2.11,0-4.71-.62-7.08-3.12-1.89-2.02-2.82-4.27-2.82-7.22,0-3.7,1.45-6.29,3.04-7.88,1.67-1.67,4.27-2.77,7.08-2.77,3.17,0,5.06,1.63,5.9,2.55v-1.89ZM189.82,97.66c-.97.92-1.41,2.2-1.41,3.21,0,1.14.48,2.38,1.36,3.21.75.7,1.98,1.32,3.17,1.32s2.29-.48,3.17-1.36c.62-.62,1.32-1.58,1.32-3.17,0-.92-.26-2.16-1.36-3.21-.66-.62-1.67-1.28-3.17-1.28-.88,0-2.07.31-3.08,1.28Z"/>
      <path class="cls-2" d="M217.14,78.65v19.5l6.65-7.08h9.55l-9.29,9.07,10.03,10.61h-9.77l-7.17-8.05v8.05h-7.04v-32.08h7.04Z"/>
      <path class="cls-2" d="M257.53,102.19h-14.65c0,1.06.4,2.46,1.23,3.3.44.44,1.32.97,2.9.97.18,0,1.41-.04,2.29-.53.44-.26.92-.7,1.23-1.32h6.73c-.31,1.1-.92,2.64-2.38,4.05s-3.74,2.73-8.01,2.73c-2.6,0-5.72-.57-8.14-2.99-1.28-1.28-2.9-3.7-2.9-7.44,0-3.3,1.23-5.94,2.95-7.61,1.63-1.58,4.18-2.86,8.05-2.86,2.29,0,5.24.48,7.57,2.68,2.77,2.64,3.12,6.07,3.12,8.27v.75ZM251.07,98.15c-.18-.75-.62-1.58-1.14-2.11-.92-.92-2.2-1.06-2.9-1.06-1.19,0-2.11.31-2.86,1.06-.48.53-.92,1.23-1.06,2.11h7.96Z"/>
      <path class="cls-2" d="M262.94,104.22c.84.62,1.85,1.14,2.82,1.45.88.31,1.98.48,2.73.48.53,0,1.36-.13,1.8-.53.31-.31.35-.57.35-.92,0-.31-.04-.62-.35-.88-.44-.4-1.14-.53-1.85-.7l-1.85-.44c-.97-.22-2.38-.57-3.43-1.72-.75-.79-1.28-1.89-1.28-3.39,0-1.89.75-3.65,1.85-4.8,1.5-1.54,4.14-2.38,7.04-2.38s5.15.79,6.29,1.28l-2.38,4.49c-.97-.44-2.42-.97-3.7-.97-.7,0-1.19.13-1.63.4-.4.22-.62.53-.62.97,0,.62.4.92.84,1.1.66.26,1.23.26,2.33.57l1.28.35c.92.26,2.33.97,2.9,1.54.97.92,1.5,2.46,1.5,3.92,0,2.38-1.01,3.96-1.98,4.88-2.29,2.29-5.63,2.46-7.26,2.46-1.76,0-4.53-.22-7.92-2.29l2.51-4.88Z"/>
    </g>
    <g>
      <path class="cls-1" d="M164.63,135.57l-.29,1.33h-4.1l3.7-10.68h4.29l3.81,10.68h-4.11l-.35-1.33h-2.95ZM166.2,129.79h-.14c-.02.45-.08.82-.18,1.2l-.53,2.05h1.55l-.5-2.05c-.1-.42-.16-.82-.21-1.2Z"/>
      <path class="cls-1" d="M184.42,136.53c-.93.5-1.68.61-2.61.61-1.54,0-3.09-.27-4.37-1.54-.9-.88-1.62-2.26-1.62-4.05s.67-3.01,1.6-3.92c.99-.98,2.38-1.65,4.32-1.65,2.29,0,3.68.93,4.43,1.71.98,1.02,1.47,2.42,1.47,3.89,0,1.89-.74,2.88-1.01,3.23l1.57,1.75-3.04,1.26-.75-1.3ZM183.64,132.14c.22-.78.05-1.62-.51-2.18-.4-.4-.85-.56-1.39-.56s-1.01.16-1.41.59c-.38.42-.59,1.01-.59,1.54,0,.58.19,1.23.64,1.65.45.43,1.15.64,1.82.46l-.98-1.04,2.42-.46Z"/>
      <path class="cls-1" d="M192.49,126.22h3.84v6.2c0,.32.03.77.34,1.09.21.22.46.29.77.29.4,0,.64-.11.78-.26.29-.29.29-.85.29-1.12v-6.2h3.86v6.55c0,.83-.16,2.05-1.12,3.04-1.09,1.12-2.62,1.33-3.81,1.33-.98,0-2.75-.1-3.97-1.41-.83-.9-.98-1.9-.98-2.69v-6.82Z"/>
      <path class="cls-1" d="M211.01,135.57l-.29,1.33h-4.1l3.7-10.68h4.29l3.81,10.68h-4.11l-.35-1.33h-2.95ZM212.58,129.79h-.14c-.02.45-.08.82-.18,1.2l-.53,2.05h1.55l-.5-2.05c-.1-.42-.16-.82-.21-1.2Z"/>
      <path class="cls-1" d="M222.69,136.9v-10.68h4.82c1.12,0,2.29.13,3.27,1.1.54.54,1.01,1.36,1.01,2.62,0,.95-.29,1.54-.59,1.91-.32.4-.85.72-1.47.85v.1c.21.11.42.27.56.5l2.4,3.6h-4.47l-1.54-3.12c-.05-.11-.1-.16-.14-.34l-.06.03v3.43h-3.78ZM226.47,130.97h.45c.22,0,.58-.03.82-.24.13-.11.27-.32.27-.66,0-.24-.06-.48-.21-.64-.13-.14-.34-.29-.66-.29h-.67v1.82Z"/>
      <path class="cls-1" d="M237.27,136.9v-10.68h3.87v10.68h-3.87Z"/>
      <path class="cls-1" d="M246.48,126.22h3.84v6.2c0,.32.03.77.34,1.09.21.22.46.29.77.29.4,0,.64-.11.78-.26.29-.29.29-.85.29-1.12v-6.2h3.86v6.55c0,.83-.16,2.05-1.12,3.04-1.09,1.12-2.62,1.33-3.81,1.33-.98,0-2.75-.1-3.97-1.41-.83-.9-.98-1.9-.98-2.69v-6.82Z"/>
      <path class="cls-1" d="M261.27,136.9l1.73-10.68h3.99l1.25,4.37c.16.56.22,1.09.24,1.23h.1c.02-.46.08-.78.21-1.23l1.25-4.37h3.95l1.74,10.68h-3.73l-.48-4.79c-.03-.37-.06-.61-.06-1.06h-.06c-.05.27-.14.69-.21.9l-1.58,4.95h-2.27l-1.42-4.67c-.11-.38-.19-.72-.21-1.17h-.11c0,.21,0,.62-.02.83l-.53,5.01h-3.76Z"/>
    </g>
  </g>
</svg>