<svg width="25" height="25" viewBox="0 0 25 25" fill="none" xmlns="http://www.w3.org/2000/svg">
<path d="M16.6667 25L8.33333 22.0833L1.875 24.5833C1.41204 24.7685 0.983796 24.7164 0.590278 24.4271C0.196759 24.1377 0 23.75 0 23.2639V3.81944C0 3.51852 0.0868056 3.25231 0.260417 3.02083C0.434028 2.78935 0.671296 2.61574 0.972222 2.5L8.33333 0L16.6667 2.91667L23.125 0.416667C23.588 0.231481 24.0162 0.283565 24.4097 0.572917C24.8032 0.862268 25 1.25 25 1.73611V21.1806C25 21.4815 24.9132 21.7477 24.7396 21.9792C24.566 22.2106 24.3287 22.3843 24.0278 22.5L16.6667 25ZM15.2778 21.5972V5.34722L9.72222 3.40278V19.6528L15.2778 21.5972ZM18.0556 21.5972L22.2222 20.2083V3.75L18.0556 5.34722V21.5972ZM2.77778 21.25L6.94444 19.6528V3.40278L2.77778 4.79167V21.25Z" fill="white"/>
</svg>
