<svg width="28" height="27" viewBox="0 0 28 27" fill="none" xmlns="http://www.w3.org/2000/svg">
<path d="M2.96056 3.53264C5.04682 1.29107 7.59729 0.116189 10.612 0.00800017C13.6267 -0.100188 16.2548 0.888846 18.4964 2.97511C20.2973 4.65124 21.4163 6.67594 21.8533 9.04918C22.2903 11.4224 21.9555 13.703 20.8488 15.8909L26.9413 21.5612C27.267 21.8644 27.4375 22.2286 27.4527 22.654C27.468 23.0794 27.3241 23.4549 27.0209 23.7806L24.8812 26.0797C24.578 26.4054 24.2138 26.5759 23.7884 26.5911C23.363 26.6064 22.9875 26.4625 22.6618 26.1593L16.5693 20.489C14.4842 21.7305 12.2379 22.2232 9.83055 21.967C7.42317 21.7108 5.31902 20.7446 3.5181 19.0685C1.27652 16.9822 0.1061 14.4269 0.00682725 11.4027C-0.0924458 8.3784 0.892131 5.75506 2.96056 3.53264ZM5.25961 5.67239C3.77961 7.26257 3.07365 9.13516 3.14173 11.2902C3.20981 13.4452 4.04852 15.2716 5.65785 16.7694C7.24802 18.2494 9.12507 18.9506 11.289 18.8729C13.4529 18.7953 15.2749 17.9613 16.7549 16.3712C18.2527 14.7618 18.9583 12.88 18.8717 10.7257C18.7852 8.57132 17.9468 6.75415 16.3566 5.27415C14.7473 3.77633 12.8699 3.06591 10.7245 3.1429C8.57906 3.2199 6.75744 4.06306 5.25961 5.67239Z" fill="white"/>
</svg>
