<?xml version="1.0" encoding="UTF-8"?>
<svg id="Layer_1" data-name="Layer 1" xmlns="http://www.w3.org/2000/svg" viewBox="0 0 540.14 282.93">
  <defs>
    <style>
      .cls-1 {
        fill: #1650a2;
      }
    </style>
  </defs>
  <path class="cls-1" d="M464,140.79c-10.2-3.44-23.43-3.33-33.49.25-13.93,4.95-19.22,15.49-37.4,16.17-24.02.9-27.76-13.47-46.92-17.69-9.88-2.17-21.37-1.48-30.25,2.04-12.93,5.14-18.58,14.97-35.88,15.65-23.45.91-27.1-12.24-44.96-17.16-9.21-2.53-20.99-2.33-29.92.59-14.37,4.71-19.98,15.82-38.17,16.56-24.31,1-27.98-13.55-47.32-17.73-4.37-.94-9.32-1.31-13.92-1.15-25.56.94-28.86,17.32-51.58,18.87-.53.04-1.16.02-1.8.02v3.9c.94.02,1.91-.01,2.73-.05,23.24-1.07,28.3-17.21,49.21-18.74,24.72-1.81,28.9,13.11,48.22,17.55,8.31,1.91,19.01,1.61,27.01-.77,15.88-4.72,20.96-16.9,41.28-16.96,21.94-.07,26.51,13.38,44.29,17.58,9.64,2.28,21.35,1.8,30.26-1.52,12.98-4.84,18.56-14.66,35.27-15.89,25.74-1.89,29.78,14.73,51.08,18.11,7.63,1.21,16.46.87,23.68-1.17,16.34-4.62,21.18-17.04,41.98-17.11,21.29-.07,26.06,12.71,43.09,17.31,2.07.56,5.5,1.19,8.74,1.51v-3.99c-16.11-1.57-21.95-11.71-35.23-16.19Z"/>
  <path class="cls-1" d="M464.94,167.15c-8.92-3.23-20.45-3.74-30.05-1.43-18.22,4.39-22.69,18.35-45.74,17.53-19.2-.68-24.31-12.18-39.59-16.85-9.37-2.87-21.74-2.8-31.01.2-15.05,4.86-20.07,16.17-39.41,16.66-22.34.57-26.74-12.49-43.96-17.2-8.71-2.38-19.6-2.33-28.28.09-16.98,4.74-21.52,17.73-43.63,17.11-19.6-.55-24.42-11.95-39.72-16.76-5.91-1.86-12.61-2.44-19.17-2.11-23.46,1.17-28.12,17.02-48.82,18.7-.71.06-1.96.07-3.12.11v3.98c3.43.03,8.09-.63,11.02-1.27,18.83-4.17,23.01-18.65,46.68-17.68,19.07.78,24.28,12.41,39.66,16.95,8.24,2.44,18.92,2.62,27.41.58,18.43-4.43,22.67-18.41,45.98-17.53,18.29.69,23.45,11.15,37.41,16.16,9.83,3.52,23.06,3.74,33.11.45,14.76-4.83,19.93-15.93,38.8-16.61,22.99-.83,27.24,12.75,45.12,17.35,8.58,2.21,19.1,2.13,27.58-.24,15.97-4.46,21.06-16.43,40.58-17.11,22.44-.78,26.79,12.05,43.79,17.01,2.81.82,6.38,1.46,9.67,1.76v-3.98c-16.07-1.67-21.31-11.15-34.3-15.85Z"/>
  <path class="cls-1" d="M464.55,193.01c-11.17-3.94-25.69-3.55-36.3.94-11.74,4.96-18.23,14.48-33.98,15.22-25.46,1.2-28.03-12.96-47.61-17.53-9.23-2.15-20.58-1.67-29.2,1.37-6.71,2.37-11.22,6.08-16.63,9.41-8.03,4.95-14.75,7.3-26.37,6.75-16.83-.8-23.44-11.86-37.02-16.4-9.89-3.31-23.14-3.27-32.95.15-13.36,4.66-20.01,15.54-36.78,16.26-24.89,1.07-27.38-12.22-46.05-17.2-9.59-2.56-21.62-2.15-30.68,1.09-13.47,4.81-18.8,14.79-35.89,16.09-.75.06-1.73.03-2.71.05v3.99c.06,0,.12,0,.18,0,28.18-.47,30.44-20.05,58.04-18.92,16.75.68,22.46,10.19,34.76,15.32,9.66,4.03,22.47,4.74,33.1,1.84,18.01-4.91,21.49-18.12,45.19-17.16,18.24.75,24.01,12.16,38.64,16.71,8.21,2.55,18.64,2.87,27.26.98,19.47-4.28,22.77-18.69,47.39-17.69,17.62.72,23.56,11.53,37.4,16.31,10.98,3.79,25.36,3.4,35.79-.97,11.47-4.81,17.57-13.72,32.46-15.15,26.71-2.57,30.24,13.99,51.46,17.81,1.34.24,3.29.52,5.22.71v-3.96c-16.33-1.73-21.41-11.32-34.72-16.02Z"/>
  <path class="cls-1" d="M467.18,220.06c-10.68-4.62-25.39-5.01-36.67-1-13.94,4.95-19.21,15.49-37.4,16.17-24.02.9-27.76-13.47-46.92-17.69-9.9-2.18-21.36-1.49-30.25,2.04-12.93,5.14-18.58,14.97-35.88,15.65-23.52.91-27.1-12.28-44.96-17.16-9.91-2.7-22.25-2.28-31.55,1.19-13.38,4.99-18.97,15.24-36.55,15.96-24.34,1-27.95-13.54-47.32-17.73-4.43-.96-9.49-1.34-14.15-1.15-25.33,1.05-28.69,17.32-51.35,18.87-.53.04-1.16.02-1.8.02v3.9c.94.02,1.91-.01,2.73-.05,23.19-1.03,28.25-17.17,49.21-18.74,24.63-1.84,28.94,13.11,48.22,17.55,8.31,1.91,19.01,1.61,27.01-.77,16.02-4.77,20.91-16.95,41.52-16.97,21.57-.02,26.44,13.42,44.05,17.59,9.65,2.28,21.34,1.8,30.26-1.52,13.02-4.85,18.5-14.63,35.27-15.88,25.64-1.92,29.83,14.74,51.08,18.1,7.63,1.21,16.46.87,23.68-1.17,16.45-4.65,21.18-17.12,42.22-17.12,22.09,0,27.06,14.62,46.45,18.14,1.26.23,3.18.49,5.14.67v-3.94c-14.77-1.44-20.78-10.09-32.05-14.97Z"/>
  <path class="cls-1" d="M464.01,36.75c-10.2-3.44-23.43-3.33-33.49.25-13.93,4.95-19.22,15.49-37.4,16.17-24.02.9-27.76-13.47-46.92-17.69-9.88-2.17-21.37-1.48-30.25,2.04-12.93,5.14-18.58,14.97-35.88,15.65-23.45.91-27.1-12.24-44.96-17.16-9.21-2.53-20.99-2.33-29.92.59-14.37,4.71-19.98,15.82-38.17,16.56-24.31,1-27.98-13.55-47.32-17.73-4.37-.94-9.32-1.31-13.92-1.15-25.56.94-28.86,17.32-51.58,18.87-.53.04-1.16.02-1.8.02v3.9c.94.02,1.91-.01,2.73-.05,23.24-1.07,28.3-17.21,49.21-18.74,24.72-1.81,28.9,13.11,48.22,17.55,8.31,1.91,19.01,1.61,27.01-.77,15.88-4.72,20.96-16.9,41.28-16.96,21.94-.07,26.51,13.38,44.29,17.58,9.64,2.28,21.35,1.8,30.26-1.52,12.98-4.84,18.56-14.66,35.27-15.89,25.74-1.89,29.78,14.73,51.08,18.11,7.63,1.21,16.46.87,23.68-1.17,16.34-4.62,21.18-17.04,41.98-17.11,21.29-.07,26.06,12.71,43.09,17.31,2.07.56,5.5,1.19,8.74,1.51v-3.99c-16.11-1.57-21.95-11.71-35.23-16.19Z"/>
  <path class="cls-1" d="M464.95,63.11c-8.92-3.23-20.45-3.74-30.05-1.43-18.22,4.39-22.69,18.35-45.74,17.53-19.2-.68-24.31-12.18-39.59-16.85-9.37-2.87-21.74-2.8-31.01.2-15.05,4.86-20.07,16.17-39.41,16.66-22.34.57-26.74-12.49-43.96-17.2-8.71-2.38-19.6-2.33-28.28.09-16.98,4.74-21.52,17.73-43.63,17.11-19.6-.55-24.42-11.95-39.72-16.76-5.91-1.86-12.61-2.44-19.17-2.11-23.46,1.17-28.12,17.02-48.82,18.7-.71.06-1.96.07-3.12.11v3.98c3.43.03,8.09-.63,11.02-1.27,18.83-4.17,23.01-18.65,46.68-17.68,19.07.78,24.28,12.41,39.66,16.95,8.24,2.44,18.92,2.62,27.41.58,18.43-4.43,22.67-18.41,45.98-17.53,18.29.69,23.45,11.15,37.41,16.16,9.83,3.52,23.06,3.74,33.11.45,14.76-4.83,19.93-15.93,38.8-16.61,22.99-.83,27.24,12.75,45.12,17.35,8.58,2.21,19.1,2.13,27.58-.24,15.97-4.46,21.06-16.43,40.58-17.11,22.44-.78,26.79,12.05,43.79,17.01,2.81.82,6.38,1.46,9.67,1.76v-3.98c-16.07-1.67-21.31-11.15-34.3-15.85Z"/>
  <path class="cls-1" d="M464.56,88.97c-11.17-3.94-25.69-3.55-36.3.94-11.74,4.96-18.23,14.48-33.98,15.22-25.46,1.2-28.03-12.96-47.61-17.53-9.23-2.15-20.58-1.67-29.2,1.37-6.71,2.37-11.22,6.08-16.63,9.41-8.03,4.95-14.75,7.3-26.37,6.75-16.83-.8-23.44-11.86-37.02-16.4-9.89-3.31-23.14-3.27-32.95.15-13.36,4.66-20.01,15.54-36.78,16.26-24.89,1.07-27.38-12.22-46.05-17.2-9.59-2.56-21.62-2.15-30.68,1.09-13.47,4.81-18.8,14.79-35.89,16.09-.75.06-1.73.03-2.71.05v3.99c.06,0,.12,0,.18,0,28.18-.47,30.44-20.05,58.04-18.92,16.75.68,22.46,10.19,34.76,15.32,9.66,4.03,22.47,4.74,33.1,1.84,18.01-4.91,21.49-18.12,45.19-17.16,18.24.75,24.01,12.16,38.64,16.71,8.21,2.55,18.64,2.87,27.26.98,19.47-4.28,22.77-18.69,47.39-17.69,17.62.72,23.56,11.53,37.4,16.31,10.98,3.79,25.36,3.4,35.79-.97,11.47-4.81,17.57-13.72,32.46-15.15,26.71-2.57,30.24,13.99,51.46,17.81,1.34.24,3.29.52,5.22.71v-3.96c-16.33-1.73-21.41-11.32-34.72-16.02Z"/>
  <path class="cls-1" d="M467.19,116.02c-10.68-4.62-25.39-5.01-36.67-1-13.94,4.95-19.21,15.49-37.4,16.17-24.02.9-27.76-13.47-46.92-17.69-9.9-2.18-21.36-1.49-30.25,2.04-12.93,5.14-18.58,14.97-35.88,15.65-23.52.91-27.1-12.28-44.96-17.16-9.91-2.7-22.25-2.28-31.55,1.19-13.38,4.99-18.97,15.24-36.55,15.96-24.34,1-27.95-13.54-47.32-17.73-4.43-.96-9.49-1.34-14.15-1.15-25.33,1.05-28.69,17.32-51.35,18.87-.53.04-1.16.02-1.8.02v3.9c.94.02,1.91-.01,2.73-.05,23.19-1.03,28.25-17.17,49.21-18.74,24.63-1.84,28.94,13.11,48.22,17.55,8.31,1.91,19.01,1.61,27.01-.77,16.02-4.77,20.91-16.95,41.52-16.97,21.57-.02,26.44,13.42,44.05,17.59,9.65,2.28,21.34,1.8,30.26-1.52,13.02-4.85,18.5-14.63,35.27-15.88,25.64-1.92,29.83,14.74,51.08,18.1,7.63,1.21,16.46.87,23.68-1.17,16.45-4.65,21.18-17.12,42.22-17.12,22.09,0,27.06,14.62,46.45,18.14,1.26.23,3.18.49,5.14.67v-3.94c-14.77-1.44-20.78-10.09-32.05-14.97Z"/>
</svg>