<svg width="61" height="43" viewBox="0 0 61 43" fill="none" xmlns="http://www.w3.org/2000/svg">
<path d="M60.3924 9.25723C60.3924 9.25723 59.7967 5.05156 57.9619 3.20488C55.6387 0.774414 53.0414 0.7625 51.85 0.619531C43.3195 -3.40864e-07 30.5119 0 30.5119 0H30.4881C30.4881 0 17.6805 -3.40864e-07 9.15 0.619531C7.95859 0.7625 5.36133 0.774414 3.03809 3.20488C1.20332 5.05156 0.619531 9.25723 0.619531 9.25723C0.619531 9.25723 0 14.2016 0 19.134V23.7566C0 28.6891 0.607617 33.6334 0.607617 33.6334C0.607617 33.6334 1.20332 37.8391 3.02617 39.6857C5.34941 42.1162 8.39942 42.0328 9.75762 42.2949C14.6424 42.7596 30.5 42.9025 30.5 42.9025C30.5 42.9025 43.3195 42.8787 51.85 42.2711C53.0414 42.1281 55.6387 42.1162 57.9619 39.6857C59.7967 37.8391 60.3924 33.6334 60.3924 33.6334C60.3924 33.6334 61 28.701 61 23.7566V19.134C61 14.2016 60.3924 9.25723 60.3924 9.25723ZM24.1975 29.3682V12.2238L40.6746 20.8258L24.1975 29.3682Z" fill="#1650A2"/>
</svg>
